<svg width="232" height="315" viewBox="0 0 232 315" fill="none" xmlns="http://www.w3.org/2000/svg">
<path d="M208.5 3.5H23.5C12.4543 3.5 3.5 12.4543 3.5 23.5V208.5C3.5 219.546 12.4543 228.5 23.5 228.5H208.5C219.546 228.5 228.5 219.546 228.5 208.5V23.5C228.5 12.4543 219.546 3.5 208.5 3.5Z" stroke="#262626" stroke-width="7" stroke-linecap="round" stroke-linejoin="round"/>
<path d="M95.62 47H83.06C81.4129 46.9987 79.7816 47.3221 78.2596 47.9519C76.7376 48.5816 75.3547 49.5052 74.19 50.67C73.0253 51.8347 72.1016 53.2176 71.4719 54.7396C70.8422 56.2616 70.5187 57.8929 70.52 59.54V166.18" stroke="#262626" stroke-width="7" stroke-linecap="round" stroke-linejoin="round"/>
<path d="M152.06 72.1V66.25V65.82" stroke="#262626" stroke-width="7" stroke-linecap="round" stroke-linejoin="round"/>
<path d="M95.62 47H164.62C166.267 47 167.897 47.3244 169.419 47.9546C170.94 48.5848 172.323 49.5084 173.487 50.6729C174.652 51.8373 175.575 53.2197 176.205 54.7411C176.836 56.2626 177.16 57.8932 177.16 59.54V66.25H152.06" stroke="#262626" stroke-width="7" stroke-linecap="round" stroke-linejoin="round"/>
<path d="M164.62 47C162.972 46.9987 161.34 47.322 159.817 47.9515C158.293 48.581 156.909 49.5043 155.743 50.6687C154.577 51.8332 153.651 53.216 153.019 54.7381C152.387 56.2602 152.061 57.8919 152.06 59.54V65.82" stroke="#262626" stroke-width="7" stroke-linecap="round" stroke-linejoin="round"/>
<path d="M139.52 185C137.875 184.999 136.245 184.673 134.726 184.042C133.206 183.411 131.826 182.487 130.663 181.323C129.5 180.159 128.578 178.777 127.95 177.256C127.321 175.735 126.999 174.105 127 172.46V166.18H58C57.168 166.183 56.3709 166.514 55.7826 167.103C55.1943 167.691 54.8626 168.488 54.86 169.32V172.46C54.8587 174.105 55.1815 175.735 55.81 177.256C56.4384 178.777 57.3603 180.159 58.5229 181.323C59.6855 182.487 61.066 183.411 62.5857 184.042C64.1054 184.673 65.7345 184.999 67.38 185H139.52ZM139.52 185C141.167 185.001 142.798 184.678 144.32 184.048C145.842 183.418 147.225 182.495 148.39 181.33C149.555 180.165 150.478 178.782 151.108 177.26C151.738 175.738 152.061 174.107 152.06 172.46V72.1" stroke="#262626" stroke-width="7" stroke-linecap="round" stroke-linejoin="round"/>
<path d="M60.18 312.75V281.25C60.1566 281.014 60.1859 280.777 60.2656 280.554C60.3452 280.331 60.4734 280.128 60.6408 279.961C60.8082 279.793 61.0107 279.665 61.2336 279.586C61.4566 279.506 61.6944 279.477 61.93 279.5H68.28C73.78 279.5 76.48 282.55 76.48 288.15V291.6C76.48 297.2 73.78 300.25 68.28 300.25H65.68V312.75C65.7033 312.986 65.6741 313.223 65.5944 313.446C65.5147 313.669 65.3866 313.872 65.2192 314.039C65.0518 314.207 64.8493 314.335 64.6264 314.414C64.4034 314.494 64.1656 314.523 63.93 314.5H61.93C61.6944 314.523 61.4566 314.494 61.2336 314.414C61.0107 314.335 60.8082 314.207 60.6408 314.039C60.4734 313.872 60.3452 313.669 60.2656 313.446C60.1859 313.223 60.1566 312.986 60.18 312.75ZM68.28 295.25C70.03 295.25 70.98 294.45 70.98 291.95V287.8C70.98 285.3 69.98 284.5 68.28 284.5H65.68V295.25H68.28Z" fill="#262626"/>
<path d="M81.43 313C81.4311 312.849 81.4479 312.698 81.48 312.55L86.73 281.1C86.7425 280.872 86.8008 280.649 86.9014 280.444C87.0019 280.239 87.1428 280.057 87.3154 279.907C87.488 279.758 87.689 279.645 87.9062 279.575C88.1235 279.505 88.3526 279.48 88.58 279.5H92.83C93.0573 279.48 93.2865 279.505 93.5038 279.575C93.721 279.645 93.922 279.758 94.0946 279.907C94.2673 280.057 94.4081 280.239 94.5086 280.444C94.6092 280.649 94.6675 280.872 94.68 281.1L99.93 312.55C99.9621 312.698 99.9789 312.849 99.98 313C99.98 314 99.38 314.5 98.33 314.5H96.38C96.149 314.526 95.9151 314.505 95.6925 314.438C95.47 314.371 95.2635 314.259 95.0857 314.109C94.9078 313.959 94.7624 313.775 94.6583 313.567C94.5541 313.359 94.4935 313.132 94.48 312.9L93.73 307.55V307.65H87.28L86.53 312.9C86.5165 313.132 86.4559 313.359 86.3517 313.567C86.2476 313.775 86.1022 313.959 85.9243 314.109C85.7465 314.259 85.54 314.371 85.3175 314.438C85.0949 314.505 84.861 314.526 84.63 314.5H83.08C82 314.5 81.43 314 81.43 313ZM93.08 302.9L90.53 285.6H90.43L87.93 302.9H93.08Z" fill="#262626"/>
<path d="M107.77 312.75V281.25C107.747 281.014 107.776 280.777 107.856 280.554C107.935 280.331 108.063 280.128 108.231 279.961C108.398 279.793 108.601 279.665 108.824 279.586C109.047 279.506 109.284 279.477 109.52 279.5H115.88C121.38 279.5 124.08 282.55 124.08 288.15V291.6C124.08 297.2 121.38 300.25 115.88 300.25H113.27V312.75C113.293 312.986 113.264 313.223 113.184 313.446C113.105 313.669 112.977 313.872 112.809 314.039C112.642 314.207 112.439 314.335 112.216 314.414C111.993 314.494 111.756 314.523 111.52 314.5H109.52C109.284 314.523 109.047 314.494 108.824 314.414C108.601 314.335 108.398 314.207 108.231 314.039C108.063 313.872 107.935 313.669 107.856 313.446C107.776 313.223 107.747 312.986 107.77 312.75ZM115.88 295.25C117.63 295.25 118.58 294.45 118.58 291.95V287.8C118.58 285.3 117.63 284.5 115.88 284.5H113.27V295.25H115.88Z" fill="#262626"/>
<path d="M132.07 312.75V281.25C132.047 281.014 132.076 280.777 132.156 280.554C132.235 280.331 132.363 280.128 132.531 279.961C132.698 279.793 132.901 279.665 133.124 279.586C133.347 279.506 133.584 279.477 133.82 279.5H145.32C145.556 279.477 145.794 279.506 146.018 279.586C146.241 279.665 146.444 279.793 146.612 279.961C146.78 280.128 146.909 280.33 146.99 280.553C147.071 280.776 147.102 281.014 147.08 281.25V282.75C147.102 282.986 147.071 283.224 146.99 283.447C146.909 283.67 146.78 283.872 146.612 284.039C146.444 284.207 146.241 284.334 146.018 284.414C145.794 284.494 145.556 284.523 145.32 284.5H137.57V293.75H143.37C143.606 293.727 143.843 293.756 144.066 293.836C144.289 293.915 144.492 294.043 144.659 294.211C144.827 294.378 144.955 294.581 145.034 294.804C145.114 295.027 145.143 295.264 145.12 295.5V297C145.143 297.236 145.114 297.473 145.034 297.696C144.955 297.919 144.827 298.122 144.659 298.289C144.492 298.457 144.289 298.585 144.066 298.664C143.843 298.744 143.606 298.773 143.37 298.75H137.57V309.5H145.32C145.556 309.477 145.794 309.506 146.018 309.586C146.241 309.665 146.444 309.793 146.612 309.961C146.78 310.128 146.909 310.33 146.99 310.553C147.071 310.776 147.102 311.014 147.08 311.25V312.75C147.102 312.986 147.071 313.224 146.99 313.447C146.909 313.67 146.78 313.872 146.612 314.039C146.444 314.206 146.241 314.334 146.018 314.414C145.794 314.494 145.556 314.523 145.32 314.5H133.82C133.584 314.523 133.347 314.494 133.124 314.414C132.901 314.335 132.698 314.207 132.531 314.039C132.363 313.872 132.235 313.669 132.156 313.446C132.076 313.223 132.047 312.986 132.07 312.75V312.75Z" fill="#262626"/>
<path d="M155.22 312.75V281.25C155.196 281.012 155.226 280.771 155.307 280.545C155.388 280.32 155.519 280.116 155.69 279.948C155.861 279.78 156.067 279.653 156.294 279.575C156.521 279.497 156.762 279.472 157 279.5H163.4C169.1 279.5 171.55 282.15 171.55 287.55V289.7C171.55 293.3 170.4 295.6 167.95 296.6V296.7C170.7 297.55 171.6 300.15 171.6 304.1V310.25C171.569 311.036 171.619 311.824 171.75 312.6C171.804 312.813 171.837 313.031 171.85 313.25C171.85 314.05 171.3 314.5 170.35 314.5H168.15C167.926 314.532 167.698 314.518 167.479 314.46C167.26 314.401 167.056 314.298 166.878 314.158C166.7 314.017 166.553 313.842 166.445 313.643C166.337 313.444 166.271 313.225 166.25 313C166.125 312.072 166.075 311.136 166.1 310.2V303.8C166.1 300.55 165.1 299.5 162.65 299.5H160.75V312.75C160.773 312.986 160.744 313.223 160.664 313.446C160.585 313.669 160.457 313.872 160.289 314.039C160.122 314.207 159.919 314.335 159.696 314.414C159.473 314.494 159.236 314.523 159 314.5H157C156.762 314.528 156.521 314.503 156.294 314.425C156.067 314.347 155.861 314.22 155.69 314.052C155.519 313.884 155.388 313.68 155.307 313.455C155.226 313.229 155.196 312.988 155.22 312.75V312.75ZM162.72 294.5C164.72 294.5 166.02 293.6 166.02 290.8V288.1C166.02 285.6 165.17 284.5 163.22 284.5H160.72V294.5H162.72Z" fill="#262626"/>
</svg>
