<svg width="233" height="315" viewBox="0 0 233 315" fill="none" xmlns="http://www.w3.org/2000/svg">
<path d="M209.04 3.5H24.04C12.9943 3.5 4.03998 12.4543 4.03998 23.5V208.5C4.03998 219.546 12.9943 228.5 24.04 228.5H209.04C220.086 228.5 229.04 219.546 229.04 208.5V23.5C229.04 12.4543 220.086 3.5 209.04 3.5Z" stroke="#262626" stroke-width="7" stroke-linecap="round" stroke-linejoin="round"/>
<path d="M164.22 100.7V148.7C164.22 153.861 163.203 158.971 161.228 163.739C159.253 168.508 156.359 172.84 152.709 176.489C149.06 180.139 144.728 183.033 139.959 185.008C135.191 186.983 130.081 188 124.92 188H108.17C97.747 188 87.7509 183.859 80.3807 176.489C73.0105 169.119 68.87 159.123 68.87 148.7V101.31" stroke="#262626" stroke-width="7" stroke-linecap="round" stroke-linejoin="round"/>
<path d="M68.87 101.34V55.92C68.87 52.7586 70.1258 49.7267 72.3613 47.4913C74.5967 45.2558 77.6286 44 80.79 44C83.9496 44.0027 86.979 45.2597 89.2122 47.4948C91.4455 49.73 92.7 52.7604 92.7 55.92V101.34" stroke="#262626" stroke-width="7" stroke-linecap="round" stroke-linejoin="round"/>
<path d="M140.38 101.34V55.92C140.38 54.3547 140.688 52.8046 141.287 51.3584C141.886 49.9122 142.764 48.5981 143.871 47.4913C144.978 46.3844 146.292 45.5064 147.738 44.9073C149.185 44.3083 150.735 44 152.3 44V44C155.461 44 158.493 45.2558 160.729 47.4913C162.964 49.7267 164.22 52.7586 164.22 55.92V101.34" stroke="#262626" stroke-width="7" stroke-linecap="round" stroke-linejoin="round"/>
<path d="M92.7 113.58V91.36C92.7 88.1986 93.9559 85.1667 96.1913 82.9313C98.4267 80.6958 101.459 79.44 104.62 79.44V79.44C106.186 79.4387 107.736 79.7461 109.183 80.3447C110.63 80.9432 111.945 81.8212 113.052 82.9283C114.159 84.0355 115.037 85.3501 115.635 86.7968C116.234 88.2436 116.541 89.7943 116.54 91.36V97.48" stroke="#262626" stroke-width="7" stroke-linecap="round" stroke-linejoin="round"/>
<path d="M116.54 115.28V91.36C116.54 88.1986 117.796 85.1667 120.031 82.9313C122.267 80.6958 125.299 79.44 128.46 79.44V79.44C130.026 79.4387 131.576 79.7461 133.023 80.3447C134.47 80.9432 135.784 81.8212 136.892 82.9283C137.999 84.0355 138.877 85.3501 139.475 86.7968C140.074 88.2436 140.381 89.7943 140.38 91.36V120.36C140.38 121.925 140.072 123.475 139.473 124.922C138.874 126.368 137.996 127.682 136.889 128.789C135.782 129.896 134.468 130.774 133.022 131.373C131.575 131.972 130.025 132.28 128.46 132.28V132.28C126.09 132.297 123.769 131.6 121.8 130.28" stroke="#262626" stroke-width="7" stroke-linecap="round" stroke-linejoin="round"/>
<path d="M68.87 127.58C68.87 123.867 70.345 120.306 72.9705 117.681C75.596 115.055 79.157 113.58 82.87 113.58H110.42C113.581 113.58 116.613 114.836 118.849 117.071C121.084 119.307 122.34 122.339 122.34 125.5C122.341 127.066 122.034 128.616 121.435 130.063C120.837 131.51 119.959 132.825 118.852 133.932C117.745 135.039 116.43 135.917 114.983 136.515C113.536 137.114 111.986 137.421 110.42 137.42H91.87" stroke="#262626" stroke-width="7" stroke-linecap="round" stroke-linejoin="round"/>
<path d="M105.59 137.42C109.009 137.42 112.287 138.778 114.705 141.195C117.122 143.613 118.48 146.891 118.48 150.31V158.68" stroke="#262626" stroke-width="7" stroke-linecap="round" stroke-linejoin="round"/>
<path d="M70.54 312.75V281.25C70.5167 281.014 70.5459 280.777 70.6256 280.554C70.7053 280.331 70.8335 280.128 71.0009 279.961C71.1683 279.793 71.3707 279.665 71.5937 279.586C71.8166 279.506 72.0544 279.477 72.29 279.5H78.69C84.39 279.5 86.84 282.15 86.84 287.55V289.7C86.84 293.3 85.69 295.6 83.24 296.6V296.7C85.99 297.55 86.89 300.15 86.89 304.1V310.25C86.8586 311.036 86.9088 311.824 87.04 312.6C87.094 312.813 87.1275 313.031 87.14 313.25C87.14 314.05 86.59 314.5 85.64 314.5H83.44C83.2159 314.532 82.9876 314.518 82.7689 314.46C82.5503 314.401 82.3459 314.298 82.1682 314.158C81.9905 314.017 81.8432 313.842 81.7352 313.643C81.6272 313.444 81.5608 313.225 81.54 313C81.4155 312.072 81.3654 311.136 81.39 310.2V303.8C81.39 300.55 80.44 299.5 77.94 299.5H76V312.75C76.0234 312.986 75.9942 313.223 75.9145 313.446C75.8348 313.669 75.7066 313.872 75.5392 314.039C75.3718 314.207 75.1693 314.335 74.9464 314.414C74.7235 314.494 74.4856 314.523 74.25 314.5H72.25C72.0176 314.517 71.7843 314.483 71.5663 314.401C71.3484 314.318 71.1511 314.189 70.9882 314.023C70.8253 313.856 70.7008 313.656 70.6234 313.436C70.546 313.216 70.5176 312.982 70.54 312.75V312.75ZM78 294.5C80.05 294.5 81.3 293.6 81.3 290.8V288.1C81.3 285.6 80.45 284.5 78.5 284.5H76V294.5H78Z" fill="#262626"/>
<path d="M95.29 306.2V287.8C95.29 282.2 98.29 279 103.64 279C108.99 279 111.99 282.2 111.99 287.8V306.2C111.99 311.8 108.99 315 103.64 315C98.29 315 95.29 311.8 95.29 306.2ZM106.49 306.55V287.45C106.49 284.95 105.39 284 103.64 284C101.89 284 100.79 284.95 100.79 287.45V306.55C100.79 309.05 101.89 310 103.64 310C105.39 310 106.49 309.05 106.49 306.55V306.55Z" fill="#262626"/>
<path d="M120.34 306.4V287.6C120.34 282.2 123.14 279 128.44 279C133.74 279 136.54 282.2 136.54 287.6V289.55C136.563 289.786 136.534 290.023 136.454 290.246C136.375 290.469 136.247 290.672 136.079 290.839C135.912 291.007 135.709 291.135 135.486 291.214C135.263 291.294 135.026 291.323 134.79 291.3H133.09C132.854 291.323 132.617 291.294 132.394 291.214C132.171 291.135 131.968 291.007 131.801 290.839C131.633 290.672 131.505 290.469 131.426 290.246C131.346 290.023 131.317 289.786 131.34 289.55V287.25C131.34 284.95 130.24 284 128.59 284C126.94 284 125.84 284.95 125.84 287.25V306.8C125.84 309.1 126.94 310 128.59 310C130.24 310 131.34 309.1 131.34 306.8V303.2C131.317 302.964 131.346 302.727 131.426 302.504C131.505 302.281 131.633 302.078 131.801 301.911C131.968 301.743 132.171 301.615 132.394 301.536C132.617 301.456 132.854 301.427 133.09 301.45H134.79C135.026 301.427 135.263 301.456 135.486 301.536C135.709 301.615 135.912 301.743 136.079 301.911C136.247 302.078 136.375 302.281 136.454 302.504C136.534 302.727 136.563 302.964 136.54 303.2V306.4C136.54 311.8 133.74 315 128.44 315C123.14 315 120.34 311.8 120.34 306.4Z" fill="#262626"/>
<path d="M144.84 312.75V281.25C144.817 281.014 144.846 280.777 144.926 280.554C145.005 280.331 145.133 280.128 145.301 279.961C145.468 279.793 145.671 279.665 145.894 279.586C146.117 279.506 146.354 279.477 146.59 279.5H148.59C148.826 279.477 149.063 279.506 149.286 279.586C149.509 279.665 149.712 279.793 149.879 279.961C150.047 280.128 150.175 280.331 150.254 280.554C150.334 280.777 150.363 281.014 150.34 281.25V294.25L156.89 280.8C157.055 280.398 157.341 280.057 157.708 279.824C158.075 279.591 158.506 279.478 158.94 279.5H160.64C161.64 279.5 162.19 279.95 162.19 280.65C162.183 280.966 162.097 281.276 161.94 281.55L156.29 292.35L162.44 312.35C162.534 312.624 162.585 312.911 162.59 313.2C162.59 314.05 162.04 314.5 161.04 314.5H158.89C158.442 314.517 158.002 314.384 157.639 314.121C157.277 313.858 157.013 313.481 156.89 313.05L152.54 298.9L150.34 303.35V312.75C150.363 312.986 150.334 313.223 150.254 313.446C150.175 313.669 150.047 313.872 149.879 314.039C149.712 314.207 149.509 314.335 149.286 314.414C149.063 314.494 148.826 314.523 148.59 314.5H146.59C146.354 314.523 146.117 314.494 145.894 314.414C145.671 314.335 145.468 314.207 145.301 314.039C145.133 313.872 145.005 313.669 144.926 313.446C144.846 313.223 144.817 312.986 144.84 312.75Z" fill="#262626"/>
</svg>
