<svg width="233" height="316" viewBox="0 0 233 316" fill="none" xmlns="http://www.w3.org/2000/svg">
<path d="M208.96 3.5H23.96C12.9143 3.5 3.96002 12.4543 3.96002 23.5V208.5C3.96002 219.546 12.9143 228.5 23.96 228.5H208.96C220.006 228.5 228.96 219.546 228.96 208.5V23.5C228.96 12.4543 220.006 3.5 208.96 3.5Z" stroke="#262626" stroke-width="7" stroke-linecap="round" stroke-linejoin="round"/>
<path d="M118.28 142.18L129.55 155.27" stroke="#262626" stroke-width="7" stroke-linecap="round" stroke-linejoin="round"/>
<path d="M116.46 104.54L69.08 44C60.82 59.17 62.99 78.59 74.33 91.1L101.39 122.55" stroke="#262626" stroke-width="7" stroke-linecap="round" stroke-linejoin="round"/>
<path d="M145.91 142.18L132.82 125.45" stroke="#262626" stroke-width="7" stroke-linecap="round" stroke-linejoin="round"/>
<path d="M88.64 142.18L165.47 44C173.73 59.17 171.56 78.59 160.22 91.1L103.37 158.55" stroke="#262626" stroke-width="7" stroke-linecap="round" stroke-linejoin="round"/>
<path d="M118.09 120.91C118.415 120.908 118.733 121.003 119.004 121.182C119.275 121.361 119.487 121.616 119.612 121.915C119.738 122.215 119.772 122.545 119.71 122.864C119.648 123.183 119.492 123.476 119.263 123.706C119.034 123.936 118.742 124.094 118.424 124.158C118.105 124.222 117.775 124.19 117.475 124.066C117.174 123.942 116.918 123.732 116.737 123.462C116.556 123.192 116.46 122.875 116.46 122.55C116.459 122.335 116.5 122.122 116.581 121.923C116.662 121.724 116.782 121.543 116.934 121.391C117.085 121.239 117.265 121.118 117.464 121.035C117.662 120.952 117.875 120.91 118.09 120.91Z" stroke="#262626" stroke-width="7" stroke-linecap="round" stroke-linejoin="round"/>
<path d="M80.46 188C93.1129 188 103.37 177.743 103.37 165.09C103.37 152.437 93.1129 142.18 80.46 142.18C67.8072 142.18 57.55 152.437 57.55 165.09C57.55 177.743 67.8072 188 80.46 188Z" stroke="#262626" stroke-width="7" stroke-linecap="round" stroke-linejoin="round"/>
<path d="M80.46 174.91C85.8835 174.91 90.28 170.513 90.28 165.09C90.28 159.667 85.8835 155.27 80.46 155.27C75.0366 155.27 70.64 159.667 70.64 165.09C70.64 170.513 75.0366 174.91 80.46 174.91Z" stroke="#262626" stroke-width="7" stroke-linecap="round" stroke-linejoin="round"/>
<path d="M152.46 188C165.113 188 175.37 177.743 175.37 165.09C175.37 152.437 165.113 142.18 152.46 142.18C139.807 142.18 129.55 152.437 129.55 165.09C129.55 177.743 139.807 188 152.46 188Z" stroke="#262626" stroke-width="7" stroke-linecap="round" stroke-linejoin="round"/>
<path d="M152.46 174.91C157.883 174.91 162.28 170.513 162.28 165.09C162.28 159.667 157.883 155.27 152.46 155.27C147.037 155.27 142.64 159.667 142.64 165.09C142.64 170.513 147.037 174.91 152.46 174.91Z" stroke="#262626" stroke-width="7" stroke-linecap="round" stroke-linejoin="round"/>
<path d="M28.41 306.2V306C28.3867 305.764 28.4159 305.527 28.4956 305.304C28.5753 305.081 28.7035 304.878 28.8709 304.711C29.0383 304.543 29.2407 304.415 29.4637 304.336C29.6866 304.256 29.9244 304.227 30.16 304.25H31.86C32.0956 304.227 32.3335 304.256 32.5564 304.336C32.7793 304.415 32.9818 304.543 33.1492 304.711C33.3166 304.878 33.4448 305.081 33.5245 305.304C33.6042 305.527 33.6334 305.764 33.61 306V306.65C33.61 309.15 34.7101 310.05 36.4601 310.05C38.2101 310.05 39.31 309.15 39.31 306.55C39.31 303.65 38.21 301.8 34.61 298.65C30.01 294.6 28.5101 291.75 28.5101 287.75C28.5101 282.25 31.3601 279.05 36.7101 279.05C42.0601 279.05 44.7101 282.35 44.7101 287.55C44.7412 287.787 44.7174 288.028 44.6405 288.255C44.5636 288.481 44.4356 288.687 44.2665 288.856C44.0973 289.026 43.8915 289.154 43.665 289.23C43.4384 289.307 43.1973 289.331 42.9601 289.3H41.2601C41.0229 289.331 40.7817 289.307 40.5552 289.23C40.3286 289.154 40.1228 289.026 39.9537 288.856C39.7845 288.687 39.6565 288.481 39.5796 288.255C39.5027 288.028 39.4789 287.787 39.5101 287.55V287.5C39.5101 285 38.5101 284.05 36.7601 284.05C35.0101 284.05 34 285 34 287.35C34 289.7 35.15 291.75 38.75 294.9C43.35 298.95 44.75 301.75 44.75 306.1C44.75 311.8 41.8501 315 36.4501 315C31.0501 315 28.41 311.8 28.41 306.2Z" fill="#262626"/>
<path d="M52.61 306.4V287.6C52.61 282.2 55.41 279 60.71 279C66.01 279 68.81 282.2 68.81 287.6V289.55C68.8333 289.786 68.8041 290.023 68.7244 290.246C68.6447 290.469 68.5166 290.672 68.3492 290.839C68.1818 291.007 67.9793 291.135 67.7563 291.214C67.5334 291.294 67.2956 291.323 67.06 291.3H65.36C65.1244 291.323 64.8866 291.294 64.6636 291.214C64.4407 291.135 64.2382 291.007 64.0708 290.839C63.9034 290.672 63.7752 290.469 63.6956 290.246C63.6159 290.023 63.5866 289.786 63.61 289.55V287.25C63.61 284.95 62.51 284 60.86 284C59.21 284 58.11 284.95 58.11 287.25V306.8C58.11 309.1 59.21 310 60.86 310C62.51 310 63.61 309.1 63.61 306.8V303.2C63.5866 302.964 63.6159 302.727 63.6956 302.504C63.7752 302.281 63.9034 302.078 64.0708 301.911C64.2382 301.743 64.4407 301.615 64.6636 301.536C64.8866 301.456 65.1244 301.427 65.36 301.45H67.06C67.2956 301.427 67.5334 301.456 67.7563 301.536C67.9793 301.615 68.1818 301.743 68.3492 301.911C68.5166 302.078 68.6447 302.281 68.7244 302.504C68.8041 302.727 68.8333 302.964 68.81 303.2V306.4C68.81 311.8 66.01 315 60.71 315C55.41 315 52.61 311.8 52.61 306.4Z" fill="#262626"/>
<path d="M77.11 312.75V281.25C77.0866 281.014 77.1159 280.777 77.1955 280.554C77.2752 280.331 77.4034 280.128 77.5708 279.961C77.7382 279.793 77.9407 279.665 78.1636 279.586C78.3866 279.506 78.6244 279.477 78.86 279.5H80.86C81.0956 279.477 81.3334 279.506 81.5563 279.586C81.7793 279.665 81.9818 279.793 82.1492 279.961C82.3166 280.128 82.4447 280.331 82.5244 280.554C82.6041 280.777 82.6333 281.014 82.61 281.25V312.75C82.6333 312.986 82.6041 313.223 82.5244 313.446C82.4447 313.669 82.3166 313.872 82.1492 314.039C81.9818 314.207 81.7793 314.335 81.5563 314.414C81.3334 314.494 81.0956 314.523 80.86 314.5H78.86C78.6244 314.523 78.3866 314.494 78.1636 314.414C77.9407 314.335 77.7382 314.207 77.5708 314.039C77.4034 313.872 77.2752 313.669 77.1955 313.446C77.1159 313.223 77.0866 312.986 77.11 312.75V312.75Z" fill="#262626"/>
<path d="M90.76 306.2V306C90.7366 305.764 90.7659 305.527 90.8456 305.304C90.9253 305.081 91.0534 304.878 91.2208 304.711C91.3882 304.543 91.5907 304.415 91.8136 304.336C92.0366 304.256 92.2744 304.227 92.51 304.25H94.21C94.4487 304.22 94.6911 304.245 94.9191 304.321C95.147 304.398 95.3548 304.525 95.5268 304.694C95.6988 304.862 95.8307 305.067 95.9126 305.293C95.9945 305.519 96.0244 305.761 96 306V306.65C96 309.15 97.1 310.05 98.85 310.05C100.6 310.05 101.7 309.15 101.7 306.55C101.7 303.65 100.6 301.8 97 298.65C92.39 294.6 90.89 291.75 90.89 287.75C90.89 282.25 93.75 279.05 99.1 279.05C104.45 279.05 107.1 282.35 107.1 287.55C107.131 287.787 107.107 288.028 107.03 288.255C106.954 288.481 106.826 288.687 106.656 288.856C106.487 289.026 106.281 289.154 106.055 289.23C105.828 289.307 105.587 289.331 105.35 289.3H103.65C103.413 289.331 103.172 289.307 102.945 289.23C102.719 289.154 102.513 289.026 102.344 288.856C102.174 288.687 102.046 288.481 101.97 288.255C101.893 288.028 101.869 287.787 101.9 287.55V287.5C101.9 285 100.9 284.05 99.15 284.05C97.4 284.05 96.39 285 96.39 287.4C96.39 289.8 97.55 291.8 101.15 294.95C105.75 299 107.15 301.8 107.15 306.15C107.15 311.85 104.25 315.05 98.85 315.05C93.45 315.05 90.76 311.8 90.76 306.2Z" fill="#262626"/>
<path d="M114.35 306.2V306C114.327 305.764 114.356 305.527 114.436 305.304C114.515 305.081 114.643 304.878 114.811 304.711C114.978 304.543 115.181 304.415 115.404 304.336C115.627 304.256 115.864 304.227 116.1 304.25H117.81C118.045 304.228 118.282 304.259 118.504 304.339C118.726 304.42 118.928 304.548 119.095 304.715C119.262 304.882 119.39 305.084 119.471 305.306C119.551 305.528 119.582 305.765 119.56 306V306.65C119.56 309.15 120.65 310.05 122.4 310.05C124.15 310.05 125.26 309.15 125.26 306.55C125.26 303.65 124.16 301.8 120.56 298.65C115.95 294.6 114.45 291.75 114.45 287.75C114.45 282.25 117.31 279.05 122.65 279.05C127.99 279.05 130.65 282.35 130.65 287.55C130.681 287.787 130.657 288.028 130.58 288.255C130.504 288.481 130.376 288.687 130.206 288.856C130.037 289.026 129.831 289.154 129.605 289.23C129.378 289.307 129.137 289.331 128.9 289.3H127.2C126.963 289.331 126.722 289.307 126.495 289.23C126.269 289.154 126.063 289.026 125.894 288.856C125.724 288.687 125.596 288.481 125.52 288.255C125.443 288.028 125.419 287.787 125.45 287.55V287.5C125.45 285 124.45 284.05 122.7 284.05C120.95 284.05 120 285 120 287.35C120 289.7 121.15 291.75 124.76 294.9C129.36 298.95 130.76 301.75 130.76 306.1C130.76 311.8 127.86 315 122.46 315C117.06 315 114.35 311.8 114.35 306.2Z" fill="#262626"/>
<path d="M138.5 306.2V287.8C138.5 282.2 141.5 279 146.85 279C152.2 279 155.21 282.2 155.21 287.8V306.2C155.21 311.8 152.21 315 146.85 315C141.49 315 138.5 311.8 138.5 306.2ZM149.71 306.55V287.45C149.71 284.95 148.6 284 146.85 284C145.1 284 144 285 144 287.45V306.55C144 309.05 145.09 310 146.84 310C148.59 310 149.71 309.05 149.71 306.55V306.55Z" fill="#262626"/>
<path d="M163.9 312.75V281.25C163.877 281.014 163.906 280.777 163.986 280.554C164.065 280.331 164.193 280.128 164.361 279.961C164.528 279.793 164.731 279.665 164.954 279.586C165.177 279.506 165.414 279.477 165.65 279.5H172.06C177.76 279.5 180.21 282.15 180.21 287.55V289.7C180.21 293.3 179.06 295.6 176.6 296.6V296.7C179.35 297.55 180.26 300.15 180.26 304.1V310.25C180.231 311.036 180.278 311.823 180.4 312.6C180.462 312.812 180.499 313.03 180.51 313.25C180.51 314.05 179.96 314.5 179.01 314.5H176.81C176.585 314.532 176.356 314.518 176.137 314.46C175.918 314.401 175.713 314.298 175.534 314.158C175.356 314.018 175.208 313.843 175.099 313.644C174.99 313.445 174.922 313.226 174.9 313C174.781 312.072 174.731 311.136 174.75 310.2V303.8C174.75 300.55 173.81 299.5 171.31 299.5H169.4V312.75C169.423 312.986 169.394 313.223 169.314 313.446C169.235 313.669 169.107 313.872 168.939 314.039C168.772 314.207 168.569 314.335 168.346 314.414C168.123 314.494 167.886 314.523 167.65 314.5H165.65C165.414 314.523 165.177 314.494 164.954 314.414C164.731 314.335 164.528 314.207 164.361 314.039C164.193 313.872 164.065 313.669 163.986 313.446C163.906 313.223 163.877 312.986 163.9 312.75ZM171.4 294.5C173.45 294.5 174.7 293.6 174.7 290.8V288.1C174.7 285.6 173.85 284.5 171.9 284.5H169.4V294.5H171.4Z" fill="#262626"/>
<path d="M188.1 306.2V306C188.077 305.764 188.106 305.527 188.186 305.304C188.265 305.081 188.393 304.878 188.561 304.711C188.728 304.543 188.931 304.415 189.154 304.336C189.377 304.256 189.614 304.227 189.85 304.25H191.55C191.786 304.227 192.024 304.256 192.247 304.336C192.471 304.416 192.674 304.544 192.842 304.711C193.01 304.878 193.139 305.08 193.22 305.303C193.301 305.526 193.332 305.764 193.31 306V306.65C193.31 309.15 194.4 310.05 196.15 310.05C197.9 310.05 199.01 309.15 199.01 306.55C199.01 303.65 197.9 301.8 194.31 298.65C189.7 294.6 188.2 291.75 188.2 287.75C188.2 282.25 191.05 279.05 196.4 279.05C201.75 279.05 204.4 282.35 204.4 287.55C204.431 287.787 204.407 288.028 204.33 288.255C204.254 288.481 204.126 288.687 203.956 288.856C203.787 289.026 203.581 289.154 203.355 289.23C203.128 289.307 202.887 289.331 202.65 289.3H201C200.763 289.331 200.522 289.307 200.295 289.23C200.069 289.154 199.863 289.026 199.694 288.856C199.524 288.687 199.396 288.481 199.32 288.255C199.243 288.028 199.219 287.787 199.25 287.55V287.5C199.25 285 198.25 284.05 196.49 284.05C194.73 284.05 193.74 285 193.74 287.4C193.74 289.8 194.89 291.8 198.5 294.95C203.1 299 204.5 301.8 204.5 306.15C204.5 311.85 201.59 315.05 196.19 315.05C190.79 315.05 188.1 311.8 188.1 306.2Z" fill="#262626"/>
</svg>
